<?xml version="1.0" encoding="UTF-8" standalone="no"?>
<!DOCTYPE svg PUBLIC "-//W3C//DTD SVG 1.1//EN" "http://www.w3.org/Graphics/SVG/1.1/DTD/svg11.dtd">
<svg width="100%" height="100%" viewBox="0 0 96 96" version="1.1" xmlns="http://www.w3.org/2000/svg" xmlns:xlink="http://www.w3.org/1999/xlink" xml:space="preserve" xmlns:serif="http://www.serif.com/" style="fill-rule:evenodd;clip-rule:evenodd;stroke-linecap:round;stroke-linejoin:round;stroke-miterlimit:1.5;">
    <g transform="matrix(1.96491,0,0,1.01923,-72.3684,-0.144231)">
        <path d="M60.021,7.693C60.071,7.539 60.157,7.442 60.252,7.433C60.346,7.425 60.436,7.506 60.494,7.65C65.926,21.354 70.511,28.916 74.443,31.897C74.594,32.005 74.715,32.23 74.775,32.518C74.836,32.806 74.83,33.13 74.761,33.411C74.167,35.032 72.761,36.471 70.42,37.425C73.063,42.536 75.746,46.224 78.016,48.634C78.144,48.767 78.232,49.01 78.251,49.287C78.271,49.565 78.22,49.844 78.116,50.038C76.91,52.223 75.201,54.769 73.473,56.066C76.036,64.044 79.331,69.431 82.91,73.817C83.042,73.977 83.114,74.272 83.093,74.57C83.072,74.868 82.962,75.115 82.813,75.202C76.598,78.802 71.664,80.261 65.33,80.594L65.33,87.462L56.679,87.462L56.679,80.594C46.818,80.166 41.772,79.141 39.551,77.352C39.403,77.194 39.305,76.904 39.289,76.579C39.274,76.253 39.343,75.934 39.474,75.726C43.013,70.088 45.891,63.998 47.518,57.047C46.037,56.168 44.587,54.154 43.282,51.036C43.193,50.822 43.155,50.544 43.178,50.273C43.202,50.001 43.284,49.762 43.405,49.615C46.101,46.324 48.367,43.39 51.08,37.425C49.05,37.092 47.272,35.796 46.395,34.063C46.298,33.815 46.265,33.496 46.304,33.195C46.344,32.894 46.452,32.644 46.599,32.515C51.027,28.493 55.757,20.833 60.021,7.693Z" style="fill:rgb(65,101,39);stroke:black;stroke-width:0.64px;"/>
    </g>
</svg>
