<?xml version="1.0" encoding="UTF-8" standalone="no"?>
<!DOCTYPE svg PUBLIC "-//W3C//DTD SVG 1.1//EN" "http://www.w3.org/Graphics/SVG/1.1/DTD/svg11.dtd">
<svg width="100%" height="100%" viewBox="0 0 96 96" version="1.1" xmlns="http://www.w3.org/2000/svg" xmlns:xlink="http://www.w3.org/1999/xlink" xml:space="preserve" xmlns:serif="http://www.serif.com/" style="fill-rule:evenodd;clip-rule:evenodd;stroke-linecap:round;stroke-linejoin:round;stroke-miterlimit:1.5;">
    <g transform="matrix(1.96491,0,0,1.01923,-72.3684,-0.144231)">
        <path d="M75.883,15.84C75.909,15.84 75.932,15.868 75.943,15.912C75.954,15.956 75.952,16.008 75.936,16.047C74.379,20.056 70.313,32.497 66.857,45.274C63.111,59.126 59.977,73.391 59.29,78.141C59.248,78.466 59.119,78.724 58.952,78.817C57.205,79.858 56.355,79.036 55.936,78.632C55.936,78.632 54.174,72.514 52.098,67.349C49.505,60.896 46.5,55.085 46.5,55.085C46.5,55.085 46.48,55.136 49.058,51.949C49.199,51.774 49.385,51.808 49.507,52.031C50.114,53.159 51.939,56.607 53.371,59.991C55.226,64.376 56.715,68.843 57.094,70.004C57.11,70.052 57.139,70.077 57.168,70.067C57.197,70.058 57.22,70.015 57.227,69.96C58.59,59.051 68.349,23.021 72.323,16.065C72.41,15.92 72.521,15.84 72.636,15.84C73.262,15.84 75.334,15.84 75.883,15.84Z" style="fill:rgb(181,181,181);fill-opacity:0.29;stroke:rgb(114,114,114);stroke-opacity:0.3;stroke-width:0.64px;"/>
    </g>
    <g transform="matrix(1.96491,0,0,1.01923,-72.3684,-0.144231)">
        <path d="M75.883,15.84C75.909,15.84 75.932,15.868 75.943,15.912C75.954,15.956 75.952,16.008 75.936,16.047C74.379,20.056 70.313,32.497 66.857,45.274C63.111,59.126 59.977,73.391 59.29,78.141C59.248,78.466 59.119,78.724 58.952,78.817C57.205,79.858 56.355,79.036 55.936,78.632C55.936,78.632 54.174,72.514 52.098,67.349C49.505,60.896 46.5,55.085 46.5,55.085C46.5,55.085 46.48,55.136 49.058,51.949C49.199,51.774 49.385,51.808 49.507,52.031C50.114,53.159 51.939,56.607 53.371,59.991C55.226,64.376 56.715,68.843 57.094,70.004C57.11,70.052 57.139,70.077 57.168,70.067C57.197,70.058 57.22,70.015 57.227,69.96C58.59,59.051 68.349,23.021 72.323,16.065C72.41,15.92 72.521,15.84 72.636,15.84C73.262,15.84 75.334,15.84 75.883,15.84Z" style="fill:rgb(65,101,39);stroke:black;stroke-width:0.64px;"/>
    </g>
    <g transform="matrix(1.03237,0,0,1.03251,-2.91314,-2.89368)">
        <rect x="10" y="10" width="80" height="79" style="fill:none;stroke:black;stroke-width:2.79px;"/>
    </g>
</svg>
